<?xml version="1.0" encoding="UTF-8" standalone="no"?>
<!-- Created with Inkscape (http://www.inkscape.org/) -->

<svg
   xmlns:dc="http://purl.org/dc/elements/1.1/"
   xmlns:cc="http://creativecommons.org/ns#"
   xmlns:rdf="http://www.w3.org/1999/02/22-rdf-syntax-ns#"
   xmlns:svg="http://www.w3.org/2000/svg"
   xmlns="http://www.w3.org/2000/svg"
   xmlns:sodipodi="http://sodipodi.sourceforge.net/DTD/sodipodi-0.dtd"
   xmlns:inkscape="http://www.inkscape.org/namespaces/inkscape"
   width="32.033882mm"
   height="12.881347mm"
   viewBox="0 0 32.033882 12.881347"
   version="1.1"
   id="svg8"
   inkscape:version="0.92.4 (5da689c313, 2019-01-14)"
   sodipodi:docname="parkinglogo2.svg">
  <defs
     id="defs2" />
  <sodipodi:namedview
     id="base"
     pagecolor="#ffffff"
     bordercolor="#666666"
     borderopacity="1.0"
     inkscape:pageopacity="0.0"
     inkscape:pageshadow="2"
     inkscape:zoom="2.8"
     inkscape:cx="22.748802"
     inkscape:cy="9.9726657"
     inkscape:document-units="mm"
     inkscape:current-layer="layer1"
     showgrid="false"
     fit-margin-top="0"
     fit-margin-left="0"
     fit-margin-right="0"
     fit-margin-bottom="0"
     inkscape:window-width="1920"
     inkscape:window-height="1017"
     inkscape:window-x="-8"
     inkscape:window-y="-8"
     inkscape:window-maximized="1" />
  <metadata
     id="metadata5">
    <rdf:RDF>
      <cc:Work
         rdf:about="">
        <dc:format>image/svg+xml</dc:format>
        <dc:type
           rdf:resource="http://purl.org/dc/dcmitype/StillImage" />
        <dc:title></dc:title>
      </cc:Work>
    </rdf:RDF>
  </metadata>
  <g
     inkscape:groupmode="layer"
     id="layer2"
     inkscape:label="Layer 2"
     transform="translate(-120.4724,-149.14808)">
    <path
       style="font-style:normal;font-variant:normal;font-weight:bold;font-stretch:normal;font-size:112.45350647px;line-height:1.25;font-family:Montserrat;-inkscape-font-specification:Montserrat;letter-spacing:0px;word-spacing:0px;fill:#000000;fill-opacity:1;stroke:none;stroke-width:1.17139065"
       d="m 41.199627,182.71918 v 78.71767 H 59.417122 V 239.73327 H 75.273 c 21.028805,0 34.18603,-10.90823 34.18603,-28.45098 0,-17.6552 -13.157225,-28.56311 -34.18603,-28.56311 z m 35.074348,19.28099 c 0.485214,-0.01 0.978542,0.002 1.479494,0.0372 8.015237,0.56445 16.289962,5.89835 16.289962,5.89835 0,0 1.265597,-0.021 2.15129,-0.13798 l 0.778248,-0.1912 c 0,0 2.152502,0.30235 1.75338,3.38894 -0.399121,3.08659 -1.144116,6.06681 -1.144116,6.06681 l -4.852935,-0.0243 a 5.0236315,5.0236315 0 0 1 0.001,0.0326 5.0236315,5.0236315 0 0 1 -5.023467,5.02398 5.0236315,5.0236315 0 0 1 -5.023982,-5.02398 5.0236315,5.0236315 0 0 1 0,-0.001 c -2.91574,-0.004 -5.570061,-0.007 -5.717479,0.0124 l -14.189832,0.006 a 5.0236315,5.0236315 0 0 1 -5.022432,5.00693 5.0236315,5.0236315 0 0 1 -5.02295,-5.00486 h -3.65094 c 0,0 -0.789749,0.066 -0.856279,-0.67903 -0.0666,-0.74504 -0.0527,-4.45709 -0.0527,-4.45709 0,0 0.14631,-1.87609 6.053367,-1.79627 5.907101,0.0798 9.380824,-3.15278 9.380824,-3.15278 0,0 5.391292,-4.86172 12.669512,-5.00435 z"
       id="path18"
       inkscape:connector-curvature="0" />
  </g>
  <g
     inkscape:label="Layer 1"
     inkscape:groupmode="layer"
     id="layer1"
     transform="translate(-120.4724,-149.14808)">
    <text
       xml:space="preserve"
       style="font-style:normal;font-weight:normal;font-size:46.85562515px;line-height:1.25;font-family:sans-serif;letter-spacing:0px;word-spacing:0px;fill:#000000;fill-opacity:1;stroke:none;stroke-width:1.17139065"
       x="-0.29598194"
       y="200.29453"
       id="text12"><tspan
         sodipodi:role="line"
         id="tspan10"
         x="-0.29598194"
         y="200.29453"
         style="font-style:normal;font-variant:normal;font-weight:bold;font-stretch:normal;font-size:112.45350647px;font-family:Montserrat;-inkscape-font-specification:Montserrat;stroke-width:1.17139065">P</tspan></text>
    <path
       inkscape:connector-curvature="0"
       id="path37"
       d="m 127.03486,158.7552 h -5.85863 c 0,0 -0.49569,0.0414 -0.53745,-0.42633 -0.0418,-0.46772 -0.0334,-2.79798 -0.0334,-2.79798 0,0 0.0919,-1.17765 3.80024,-1.12754 3.70836,0.0501 5.88929,-1.97925 5.88929,-1.97925 0,0 3.85063,-3.47265 8.88244,-3.1183 5.03181,0.35435 10.22633,3.70274 10.22633,3.70274 0,0 1.56771,-0.0234 1.83938,-0.20646"
       style="fill:none;stroke:#ffffff;stroke-width:0.26458332px;stroke-linecap:butt;stroke-linejoin:miter;stroke-opacity:1" />
    <path
       sodipodi:nodetypes="cc"
       inkscape:connector-curvature="0"
       id="path39"
       d="m 127.03486,158.7552 h 24.72495"
       style="fill:none;stroke:#ffffff;stroke-width:0.26458332px;stroke-linecap:butt;stroke-linejoin:miter;stroke-opacity:1" />
    <path
       inkscape:connector-curvature="0"
       id="path41"
       d="m 151.24305,152.80208 c 0,0 1.35114,0.18976 1.10058,2.12746 -0.25056,1.9377 -0.71829,3.80859 -0.71829,3.80859"
       style="fill:none;stroke:#ffffff;stroke-width:0.26458332px;stroke-linecap:butt;stroke-linejoin:miter;stroke-opacity:1" />
    <circle
       style="fill:#ffffff;fill-opacity:1;stroke:#ffffff;stroke-width:0.26458332;stroke-opacity:1"
       r="3.1537387"
       cy="158.74339"
       cx="126.62145"
       id="circle43" />
    <circle
       id="circle45"
       cx="145.42577"
       cy="158.74339"
       r="3.1537387"
       style="fill:#ffffff;fill-opacity:1;stroke:#ffffff;stroke-width:0.26458332;stroke-opacity:1" />
  </g>
</svg>
