<?xml version="1.0" encoding="UTF-8" standalone="no"?>
<!-- Created with Inkscape (http://www.inkscape.org/) -->

<svg
   xmlns:dc="http://purl.org/dc/elements/1.1/"
   xmlns:cc="http://creativecommons.org/ns#"
   xmlns:rdf="http://www.w3.org/1999/02/22-rdf-syntax-ns#"
   xmlns:svg="http://www.w3.org/2000/svg"
   xmlns="http://www.w3.org/2000/svg"
   xmlns:sodipodi="http://sodipodi.sourceforge.net/DTD/sodipodi-0.dtd"
   xmlns:inkscape="http://www.inkscape.org/namespaces/inkscape"
   width="68.259407mm"
   height="78.717667mm"
   viewBox="0 0 68.259407 78.717667"
   version="1.1"
   id="svg8"
   inkscape:version="0.92.4 (5da689c313, 2019-01-14)"
   sodipodi:docname="parkinglogo.svg">
  <defs
     id="defs2" />
  <sodipodi:namedview
     id="base"
     pagecolor="#ffffff"
     bordercolor="#666666"
     borderopacity="1.0"
     inkscape:pageopacity="0.0"
     inkscape:pageshadow="2"
     inkscape:zoom="0.35"
     inkscape:cx="106.13701"
     inkscape:cy="83.043502"
     inkscape:document-units="mm"
     inkscape:current-layer="layer1"
     showgrid="false"
     fit-margin-top="0"
     fit-margin-left="0"
     fit-margin-right="0"
     fit-margin-bottom="0"
     inkscape:window-width="1920"
     inkscape:window-height="1017"
     inkscape:window-x="-8"
     inkscape:window-y="-8"
     inkscape:window-maximized="1" />
  <metadata
     id="metadata5">
    <rdf:RDF>
      <cc:Work
         rdf:about="">
        <dc:format>image/svg+xml</dc:format>
        <dc:type
           rdf:resource="http://purl.org/dc/dcmitype/StillImage" />
        <dc:title></dc:title>
      </cc:Work>
    </rdf:RDF>
  </metadata>
  <g
     inkscape:label="Layer 1"
     inkscape:groupmode="layer"
     id="layer1"
     transform="translate(-37.685774,-92.087594)">
    <path
       style="font-style:normal;font-variant:normal;font-weight:bold;font-stretch:normal;font-size:112.45350647px;line-height:1.25;font-family:Montserrat;-inkscape-font-specification:Montserrat;letter-spacing:0px;word-spacing:0px;fill:#ffffff;fill-opacity:1;stroke:none;stroke-width:1.17139065"
       d="m 37.685774,92.087594 v 78.717666 h 18.217495 v -21.70358 h 15.855877 c 21.028806,0 34.186034,-10.90823 34.186034,-28.45098 0,-17.6552 -13.157228,-28.563106 -34.186034,-28.563106 z m 35.074349,19.280986 c 0.485214,-0.01 0.978541,0.002 1.479492,0.0372 8.015237,0.56445 16.289965,5.89835 16.289965,5.89835 0,0 1.265594,-0.021 2.15129,-0.13798 l 0.778248,-0.1912 c 0,0 2.152502,0.30235 1.753378,3.38894 -0.399122,3.08659 -1.144114,6.06681 -1.144114,6.06681 l -4.852937,-0.0243 a 5.0236316,5.0236316 0 0 1 0.0011,0.0326 5.0236316,5.0236316 0 0 1 -5.023467,5.02398 5.0236316,5.0236316 0 0 1 -5.023982,-5.02398 5.0236316,5.0236316 0 0 1 0,-10e-4 c -2.91574,-0.004 -5.570061,-0.007 -5.717479,0.0124 l -14.189832,0.006 a 5.0236316,5.0236316 0 0 1 -5.02249,5.00696 5.0236316,5.0236316 0 0 1 -5.02295,-5.00486 h -3.650982 c 0,0 -0.789749,0.066 -0.856279,-0.67903 -0.0666,-0.74504 -0.0527,-4.45709 -0.0527,-4.45709 0,0 0.14631,-1.87609 6.053367,-1.79627 5.907101,0.0798 9.380824,-3.15278 9.380824,-3.15278 0,0 5.391292,-4.86172 12.669511,-5.00435 z"
       id="path18"
       inkscape:connector-curvature="0" />
  </g>
</svg>
